<?xml version="1.0" encoding="UTF-8"?>
<svg id="Layer_1" xmlns="http://www.w3.org/2000/svg" xmlns:xlink="http://www.w3.org/1999/xlink" version="1.1" viewBox="0 0 612 496">
  <!-- Generator: Adobe Illustrator 29.5.1, SVG Export Plug-In . SVG Version: 2.1.0 Build 141)  -->
  <defs>
    <style>
      .st0 {
        fill: url(#linear-gradient1);
      }

      .st1 {
        fill: url(#linear-gradient);
      }

      .st2 {
        fill: #fff;
        stroke: #231f20;
        stroke-miterlimit: 10;
      }

      .st3 {
        fill: #d62027;
      }
    </style>
    <linearGradient id="linear-gradient" x1="278.77" y1="418.14" x2="278.82" y2="418.14" gradientUnits="userSpaceOnUse">
      <stop offset="0" stop-color="#170a10"/>
      <stop offset="1" stop-color="#000"/>
    </linearGradient>
    <linearGradient id="linear-gradient1" x1="55.19" y1="268.28" x2="582.41" y2="268.28" xlink:href="#linear-gradient"/>
  </defs>
  <g>
    <path class="st1" d="M278.82,418.12s-.03,0-.03,0c-.06.08.01.02.03,0Z"/>
    <g>
      <path class="st2" d="M156.79,339.65c-.65-.52-1.33-.98-2.03-1.43-3.67-2.38-13.86-9.36-14.35-13.67s-.99-6.22,12.76-9.66c9.05-2.27,17.74-2.17,22.61-1.84,2.6.18,5.15.67,7.64,1.47,3.53,1.13,8.8,3.06,11.85,5.4,1.49,1.14,3,2.24,4.63,3.16,12.21,6.89,56.07,31.8,62.5,37.73.92.85,1.92,1.6,2.94,2.31,1.41.98,2.19,2.14-2.72,1.8-13.26-.72-13.14-.8-26.89-2.15-16.84-1.66-11.36-1.39-19.7-2.49-11.67-1.54-47.45-11.27-59.24-20.63Z"/>
      <path class="st0" d="M572.44,105.03c-2.1-.6-36.21-13.52-61.99-22.97.71-4.04,3.52-23.62-11.09-15.6,0,0-3.06.24-7.43,8.75l.48.35c-1.52-.53-2.92-1.02-4.16-1.44-.54-.18-1.05-.35-1.53-.51-2.82-.93-4.59-1.45-4.94-1.39-2.71.39-3.26,3.17-3.26,3.17-.04.01-.46.38-1.2,1.05-8.67,7.87-61.45,57.7-70.32,66.67-4.33,4.38-41.56,11.42-43.38,11.92-.05.01-.08.02-.13.03-1.9.26-46.24,6.11-103.57,3.36-40.52-1.94-74.3-10.61-91.28-15.76-7.37-2.24-14.86-3.94-22.45-5.14-18.56-2.92-51.75-10.01-51.75-10.01-4.48-.94-9.09,2.52-12.94,6.87-5.62,6.34-9.36,14.21-11.1,22.62l-5.12,24.79c-4.75,23.01-6.87,46.51-6.44,70.03.65,36.23-4.67,105.42-3.47,116.22.93,8.31,4.14,5.89,6.73,2.26.71-.99,2.23-.24,1.95.96l-.53,2.31c-.01.06-.02.12-.03.18l-5.86,80.54c-.05.73.56,1.32,1.26,1.22l5.22-.77c.57-.08,1.11.3,1.23.88l3.38,15.5c.11.52.56.89,1.08.89h24.03s.07,0,.1,0c.73-.07,8.24-1.06.49-11.23-8.14-10.68,1.63-51.14,3.8-60.69,1.22-5.35,8.06-16.53,13.83-25.33.78-1.18,2.52-.12,1.9,1.16-6.29,13.03,27.91,59.59,30.26,62.77.09.12.19.21.31.28l10.11,8.67c2.3,1.98,5.34,2.83,8.27,2.26.22-.04.37-.08.43-.11l19.19.29c3.26.05,5.61-3.21,4.64-6.44v-.04s-12.38-13.67-12.38-13.67c-.04-.04-.07-.09-.11-.14-1.01-1.55-18.5-28.6-21.66-47.7-2.79-16.86,1.6-35.79,2.9-40.85.18-.68.91-1,1.51-.69,13.14,6.82,20.65,11.07,36.27,14.99,10.55,2.65,37.46,9.15,68.51,9.27-2.23-.14-5.49-.44-9.96-.81-12.07-1.01-67.95-2.51-104.83-32.45-19.27-15.64,10.97-18.34,26.72-18.48,5.51-.05,10.93,1.4,15.75,4.17,15.49,8.93,52.12,30.22,64.04,38.7,8.56,6.09,13.73,8.39,11.7,8.86,1.88-.02,3.76-.06,5.66-.13,26.01-.99,68.53-5.34,71.42-6.98.04-.02.04-.02.03,0,.66-.06,36.07-3.14,37.67-3.14s.47,17.98.47,17.98l-.87,38.37c0,.14.76,2.12.81,2.25l1.09,6.18,5.43,7.02c.15.26,2.7.76,2.98.84l12.99,1.68,4.91,7.59c2.16,1.83,8.45,1.66,11.01.52l10.69-1.08c1.38-.61.67-5.81-.27-7.02l-1.94-6.68c-.12-.15-.19-.32-.22-.51-.59-3.44-8.41-25.61-3.75-44.68,5.47-22.37,9.93-20.66,9.93-20.66l6-.31c14.06-.73,27.47-6.56,37.67-16.62.28-.27.53-.53.74-.75,10.53-11,5.24-40.31,5.84-42.43.03-.1.04-.2.04-.31,0-2.79.11-42.55,3.26-57.73,3.12-15.07,16.69-36.33,17.83-38.1.05-.08.09-.17.12-.26,9.33-30.81,45.3-47.02,49.02-48.62.17-.08.36-.11.55-.08,1.11.15,5.36-1.05,17.67-11.29,21.72-18.06,1.4-34.44,0-34.84Z"/>
      <path class="st2" d="M478.61,76.81c.16.93.75,1.72,1.53,2.23,1.85,1.18,5.76,3.31,9.28,2.88-1.25-.57,4.77,2.66,10.23,4.02,1.84.46,14.32,5.24,20.24,6.96,7.31,2.1,17.55,6.9,23.96,8.49,4.48,1.07,8.55,2.92,12.72,4.94,3.22,1.55,7.74,3.6,8.74,7.08.69,2.43,1.68,5.41,3.13,7.32,1.92,2.99,1.31,8.56-.75,11.35-2.6,1.91-3.33,4.07-6.91,7.72-1.71,1.74-3.29,3.37-3.15,4.1.56,2.89,2.76,4.5,7.38.29,1.07-.97,1.98-1.66,3.07-2.53,9.51-7.55,6.78-5.15,8.68-7.59l2.51-3.3c3.46-6.25,1.76-9.64,1.75-11.4s-.08-1.19,0-1.69c.1-.74-.81-1.69-.99-2.53-1.12-5.07-4.1-7.66-11.88-10.91-25.38-10.61-78-26.65-83.84-31.52-2.28-1.9-6.3.54-5.68,4.1Z"/>
    </g>
  </g>
  <path class="st3" d="M259,90.34c-.91,1.11-1.87,2.45-2.86,4.02-.99,1.58-1.64,2.76-1.94,3.55-.15.47-.46.71-.91.71-.15,0-.38-.24-.69-.71-.31-.47-.73-.98-1.26-1.54-.54-.55-1.26-1.07-2.17-1.54-.91-.47-2.21-.71-3.89-.71-1.98,0-4.19.71-6.63,2.13-2.44,1.42-4.57,3-6.4,4.73-2.9,2.53-5.45,5.29-7.66,8.29-2.21,3-4.31,6.12-6.29,9.35-1.98,3.24-3.89,6.55-5.71,9.94-1.83,3.4-3.81,6.83-5.94,10.3-.15.47-.61.71-1.37.71-.31,0-.95-.47-1.94-1.42-.99-.95-1.49-1.66-1.49-2.13,0-.95.53-2.37,1.6-4.26,2.44-4.42,4.91-8.88,7.43-13.38,2.51-4.5,4.87-8.72,7.09-12.67,2.21-3.94,4.15-7.38,5.83-10.3,1.67-2.92,2.82-5.09,3.43-6.51.76-1.42,1.29-2.13,1.6-2.13s1.06.4,2.29,1.18c1.22.79,1.83,1.89,1.83,3.31,0,.47-.27,1.26-.8,2.37-.54,1.11-1.14,2.25-1.83,3.43-.69,1.18-1.34,2.33-1.94,3.43-.61,1.11-1.07,1.89-1.37,2.37-.46.79-.54,1.18-.23,1.18s.69-.24,1.14-.71c1.52-1.58,3.39-3.31,5.6-5.21,2.21-1.89,4.53-3.67,6.97-5.33,2.44-1.66,4.84-3.04,7.2-4.14,2.36-1.1,4.46-1.66,6.29-1.66,1.37,0,2.55.36,3.54,1.07.99.71,1.49,1.46,1.49,2.25Z"/>
  <path class="st3" d="M372.37,42.52c-.61,1.58-1.34,3.63-2.17,6.16-.84,2.53-1.49,4.66-1.94,6.39-.61.32-1.14.08-1.6-.71.46-.95.69-2.13.69-3.55,0-2.84-1.34-5.52-4-8.05-2.67-2.52-6.9-3.79-12.69-3.79-6.1,0-11.05,1.86-14.86,5.56-3.81,3.71-5.71,8.64-5.71,14.8,0,4.73,1.06,9.15,3.2,13.26,2.13,4.11,4.49,7.89,7.09,11.36,1.98,2.69,3.62,4.93,4.91,6.75,1.29,1.82,2.32,3.47,3.08,4.97.76,1.5,1.29,2.92,1.6,4.26.3,1.34.46,2.96.46,4.85,0,3.31-.72,6.55-2.17,9.71-1.45,3.16-3.35,6.08-5.71,8.76-2.36,2.69-4.95,5.09-7.77,7.22-2.82,2.13-5.6,3.83-8.34,5.09-6.86,3.16-14.48,4.73-22.86,4.73-3.51,0-6.97-.32-10.4-.95-3.43-.63-6.59-1.66-9.48-3.08-.76-.47-1.45-.91-2.06-1.3-.61-.39-.99-.83-1.14-1.3.61-2.68,1.33-5.72,2.17-9.11.84-3.39,1.56-6.19,2.17-8.4,0-.31.23-.47.69-.47s.69.4.69,1.18c-.46,1.42-.69,2.84-.69,4.26,0,4.42,1.75,8.33,5.26,11.72,3.5,3.4,8.91,5.09,16.23,5.09,2.74,0,5.52-.27,8.34-.83,2.82-.55,5.37-1.38,7.66-2.49,4.72-2.21,8.72-5.33,12-9.35,3.28-4.02,4.91-8.8,4.91-14.32,0-2.68-.61-5.4-1.83-8.17-1.22-2.76-3.58-6.43-7.09-11.01-3.05-4.1-5.37-7.73-6.97-10.89-1.6-3.16-2.4-6.78-2.4-10.89s.88-8.2,2.63-12.31c1.75-4.1,3.92-7.73,6.51-10.89.91-1.1,2.17-2.4,3.77-3.91,1.6-1.5,3.5-2.88,5.71-4.14,2.21-1.26,4.8-2.37,7.77-3.31,2.97-.95,6.29-1.42,9.94-1.42,2.44,0,4.8.36,7.09,1.07,2.28.71,4.34,2.09,6.17,4.14.76,1.11,1.14,2.21,1.14,3.31Z"/>
  <path class="st3" d="M347.01,143.08c-.86,0-1.29-.22-1.29-.67,2.14-2.66,4.75-6.25,7.82-10.77,3.07-4.51,6.39-9.73,9.97-15.65,3.29-5.47,6.65-11.25,10.08-17.32,3.43-6.07,6.82-12.21,10.18-18.43,3.36-6.22,6.54-12.36,9.54-18.43,3-6.07,5.79-11.84,8.36-17.32,0-.15.03-.26.11-.33.07-.07.11-.18.11-.33,0-.44-.36-.67-1.07-.67-3.86,0-7.79.22-11.79.67-4,.44-7.65.67-10.93.67-1.57,0-2.36-.44-2.36-1.33,0-.15.14-.55.43-1.22.28-.67.61-1.33.96-2,.36-.67.75-1.26,1.18-1.78.43-.52.78-.78,1.07-.78,0,1.19.71,2,2.14,2.44,1.14.3,2.86.55,5.15.78,2.28.22,4.29.41,6,.55.71,0,1.53.04,2.47.11.93.08,1.96.11,3.11.11,4.43,0,8.57-.07,12.43-.22,3.86-.15,8.65-.44,14.36-.89.43.74.35,1.41-.21,2-.72,0-1.97.04-3.75.11-1.79.08-3.32.19-4.61.33-1,0-1.86.59-2.57,1.78-3.72,6.07-7.68,12.73-11.9,19.98-4.22,7.25-8.97,15.47-14.26,24.65-.57,1.04-.68,1.67-.32,1.89.35.22.89.04,1.61-.55,7.43-4.59,14.72-9.21,21.86-13.88,7.14-4.66,13.72-9.07,19.72-13.21,1.43-.89,4-2.63,7.72-5.22,3.71-2.59,7.54-5.25,11.47-7.99,3.93-2.74,7.5-5.22,10.72-7.44,3.22-2.22,5.11-3.4,5.68-3.55h.86c.71.44,1.53.82,2.47,1.11.93.3,1.89.59,2.89.89.14.44.07.82-.21,1.11-1,.3-2.5.96-4.5,2-2,1.04-4.82,2.59-8.47,4.66-3.64,2.07-8.18,4.77-13.61,8.1-5.43,3.33-12.08,7.51-19.94,12.55-4.29,2.81-8.79,5.81-13.51,8.99-4.72,3.18-9.36,6.48-13.93,9.88-.57.44-.86.89-.86,1.33,5.86,8.14,12.72,17.21,20.58,27.2,7.86,9.99,17.86,20.84,30.01,32.53,4.43,4.29,8.43,7.84,12,10.66,3.57,2.81,7.04,5.03,10.4,6.66,3.36,1.63,6.65,2.81,9.86,3.55,3.22.74,6.75,1.11,10.61,1.11,5.86,0,11.54-.78,17.04-2.33,5.5-1.55,9.97-3.59,13.4-6.11,1.14-.74,1.71-.59,1.71.44,0,.29-.29.67-.86,1.11-4,2.66-9.18,4.85-15.54,6.55-6.36,1.7-12.97,2.55-19.83,2.55-4.29,0-8.86-.52-13.72-1.55-4.86-1.04-10.01-2.89-15.43-5.55-5.43-2.66-11.08-6.33-16.94-10.99-5.86-4.66-11.93-10.62-18.22-17.87-5.86-6.81-11.86-14.06-18.01-21.76-6.15-7.7-11.86-15.24-17.15-22.65-.43-.74-.75-1.07-.97-1-.21.08-.68.63-1.39,1.67-4.15,7.11-7.93,13.88-11.36,20.32-3.43,6.44-6.86,12.84-10.29,19.21-.57.89-1.04,1.89-1.39,3-.36,1.11-.61,1.96-.75,2.55-.72-.15-1.47-.26-2.25-.33-.79-.08-1.47-.11-2.04-.11-2,0-3.93.52-5.79,1.55-1.86,1.03-3.21,2-4.07,2.89Z"/>
  <g>
    <path class="st3" d="M218.53,407.11c-.19,2.99-1.64,4.49-4.34,4.49h-4.36c-1.19,0-2.21-.44-3.06-1.32s-1.28-1.94-1.28-3.17v-11.26c0-1.21.42-2.26,1.26-3.15s1.86-1.34,3.08-1.34h4.36c2.73,0,4.17,1.5,4.34,4.49h-2.18c-.17-1.49-.89-2.24-2.16-2.24h-2.18c-.6,0-1.11.22-1.54.66-.43.44-.64.96-.64,1.58v11.26c0,.6.21,1.13.64,1.57.42.44.94.66,1.54.66h2.18c1.28,0,1.99-.75,2.16-2.24h2.18Z"/>
    <path class="st3" d="M231.56,402.6v-2.24c0-.62-.22-1.15-.65-1.59-.43-.44-.94-.66-1.53-.66h-2.18c-1.28,0-2,.75-2.16,2.26h-2.18c.33-3.01,1.78-4.51,4.34-4.51h4.36c1.19,0,2.21.44,3.06,1.33.85.89,1.28,1.95,1.28,3.18v11.24h-4.34v-2.26c-.17,1.5-.9,2.26-2.18,2.26h-2.18c-1.19,0-2.21-.44-3.06-1.32s-1.28-1.94-1.28-3.17v-.02c0-1.23.43-2.29,1.28-3.17s1.87-1.32,3.05-1.32h4.36ZM231.56,404.85h-2.18c-.6,0-1.11.22-1.54.66-.43.44-.64.96-.64,1.58v.02c0,.6.21,1.13.64,1.57.42.44.94.66,1.54.66s1.12-.22,1.54-.66c.42-.44.64-.97.64-1.57v-2.26Z"/>
    <path class="st3" d="M242.41,391.36h4.34v4.49h2.18v2.26h-2.18v9c0,.72.23,1.28.69,1.66.46.38.89.58,1.28.58h.2v2.26h-2.18c-1.19,0-2.22-.44-3.06-1.32s-1.27-1.94-1.27-3.17v-9h-2.18v-2.26h2.18v-4.49Z"/>
    <path class="st3" d="M255.43,391.36h4.34v4.49h2.18v2.26h-2.18v9c0,.72.23,1.28.69,1.66.46.38.89.58,1.28.58h.2v2.26h-2.18c-1.19,0-2.22-.44-3.06-1.32s-1.27-1.94-1.27-3.17v-9h-2.18v-2.26h2.18v-4.49Z"/>
    <path class="st3" d="M266.28,411.6v-20.24h4.34v20.24h-4.34Z"/>
    <path class="st3" d="M288,404.85h-8.69v2.26c0,.6.21,1.13.64,1.57.42.44.94.66,1.54.66h2.18c1.44,0,2.16-.75,2.16-2.24h2.18c-.34,2.99-1.78,4.49-4.34,4.49h-4.36c-1.19,0-2.21-.44-3.06-1.32s-1.28-1.94-1.28-3.17v-6.75c0-1.24.43-2.31,1.28-3.19.85-.88,1.87-1.32,3.05-1.32h4.36c1.19,0,2.21.44,3.06,1.33.85.89,1.28,1.95,1.28,3.18v4.49ZM279.31,402.6h4.36v-2.24c0-.62-.22-1.15-.65-1.59-.43-.44-.94-.66-1.53-.66s-1.11.22-1.54.66c-.43.44-.64.97-.64,1.59v2.24Z"/>
    <path class="st3" d="M309.36,407.11c-.19,2.99-1.64,4.49-4.34,4.49h-4.36c-1.19,0-2.21-.44-3.06-1.32s-1.28-1.94-1.28-3.17v-11.26c0-1.21.42-2.26,1.26-3.15s1.86-1.34,3.08-1.34h4.36c2.73,0,4.17,1.5,4.34,4.49h-2.18c-.17-1.49-.89-2.24-2.16-2.24h-2.18c-.6,0-1.11.22-1.54.66-.43.44-.64.96-.64,1.58v11.26c0,.6.21,1.13.64,1.57.42.44.94.66,1.54.66h2.18c1.28,0,1.99-.75,2.16-2.24h2.18Z"/>
    <path class="st3" d="M318.03,395.85h4.36c1.19,0,2.21.44,3.06,1.33.85.89,1.28,1.95,1.28,3.18v6.75c0,1.22-.43,2.27-1.28,3.16-.85.89-1.87,1.33-3.06,1.33h-4.36c-1.19,0-2.21-.44-3.06-1.32s-1.28-1.94-1.28-3.17v-6.75c0-1.24.43-2.31,1.28-3.19.85-.88,1.87-1.32,3.05-1.32ZM318.03,400.36v6.75c0,.6.21,1.13.64,1.57.42.44.94.66,1.54.66s1.12-.22,1.54-.66c.42-.44.64-.97.64-1.57v-6.75c0-.62-.22-1.15-.65-1.59-.43-.44-.94-.66-1.53-.66s-1.11.22-1.54.66c-.43.44-.64.97-.64,1.59Z"/>
    <path class="st3" d="M331.06,411.6v-4.49h4.34v4.49h-4.34Z"/>
  </g>
  <path class="st3" d="M73.95,141.25c-2.15-.85-3.99-1.82-5.45-2.94-1.75-1.34-3.01-2.72-3.77-4.14-.76-1.42-1.14-2.6-1.14-3.55.15-1.26.61-2.68,1.37-4.26,5.79-11.84,11.58-23.51,17.37-35.04,5.79-11.52,11.2-21.94,16.23-31.25,1.52-2.68,3.16-5.56,4.91-8.64,1.75-3.08,3.46-5.72,5.14-7.93,1.06-1.42,2.32-2.33,3.77-2.72,1.45-.39,3.01-.59,4.69-.59,2.44,0,4.87.2,7.31.59,2.44.4,4.65,1.15,6.63,2.25,1.98,1.11,3.58,2.64,4.8,4.62,1.22,1.98,1.83,4.46,1.83,7.46,0,3.79-.65,7.34-1.94,10.65-1.3,3.31-3.01,6.31-5.14,9-2.14,2.69-4.54,5.01-7.2,6.98-2.67,1.98-5.37,3.59-8.11,4.85-1.22.47-2.71.83-4.46,1.07-1.75.24-3.31.36-4.69.36-1.68,0-3.28-.24-4.8-.71-1.52-.47-3.13-.71-4.8-.71-.77,0-1.37.28-1.83.83-.46.55-.69,1.22-.69,2.01,0,.95.11,1.54.34,1.78.23.24.57.44,1.03.59,1.98,0,4.26-.27,6.86-.83,2.59-.55,4.95-.83,7.09-.83,6.09.32,10.82,1.7,14.17,4.14,3.35,2.45,5.03,5.96,5.03,10.53,0,5.37-1.26,10.38-3.77,15.03-1.78,3.3-3.99,6.27-6.57,8.93l10.34,2.18c3.03-3.04,5.49-6.33,7.32-9.92,2.29-4.5,3.43-8.96,3.43-13.38,0-3.63-.8-6.51-2.4-8.64-1.6-2.13-3.54-3.87-5.83-5.21-2.29-1.34-4.72-2.29-7.31-2.84-2.59-.55-4.95-1.07-7.09-1.54-.31,0-.46-.16-.46-.47,0-.47.15-.71.46-.71,5.94-1.42,10.97-3.43,15.09-6.04,4.11-2.6,7.43-5.36,9.94-8.29,2.51-2.92,4.3-5.88,5.37-8.88,1.06-3,1.6-5.6,1.6-7.81,0-4.26-.88-7.65-2.63-10.18-1.75-2.52-4.34-4.5-7.77-5.92-3.43-1.42-7.77-2.33-13.03-2.72-5.26-.39-11.31-.59-18.17-.59-6.4,0-11.77.12-16.11.35s-8.95.35-13.83.35c-3.81,0-6.21-.08-7.2-.24-.99-.16-1.64-.47-1.94-.95-.15-.47-.38-.71-.69-.71-.91.95-1.37,2.29-1.37,4.02,0,1.58,1.22,2.37,3.66,2.37,1.22,0,2.89-.16,5.03-.47,2.13-.31,4.42-.67,6.86-1.07,2.43-.39,4.95-.75,7.54-1.07,2.59-.31,4.95-.47,7.09-.47.91,0,1.37.24,1.37.71s-.08.87-.23,1.18c-1.37,3-2.94,6.36-4.69,10.06-1.75,3.71-3.58,7.46-5.49,11.25-1.91,3.79-3.81,7.46-5.71,11.01-1.91,3.55-3.54,6.75-4.91,9.59-1.83,3.31-3.85,7.07-6.06,11.24-2.21,4.18-4.5,8.52-6.86,13.02-2.36,4.5-4.84,9.08-7.43,13.73-2.59,4.66-5.11,9.11-7.54,13.38-.46.79-1.03,1.7-1.71,2.72-.69,1.03-2.02,2.64-4,4.85l1.37,1.18c2.13-1.73,4.49-3.23,7.09-4.5,2.59-1.26,4.49-1.89,5.71-1.89.61,0,1.37.2,2.28.59.92.4,1.9.91,2.97,1.54,3.32,1.72,6.89,2.99,10.67,3.89.34-.76.7-1.51,1.06-2.25Z"/>
  <path class="st3" d="M221.29,105.14c-.31-.24-.61-.12-.91.35-3.66,4.73-7.51,9.23-11.54,13.49-4.04,4.26-7.96,8.01-11.77,11.24-3.81,3.24-7.39,5.76-10.74,7.58-3.35,1.81-6.25,2.72-8.69,2.72-2.14,0-3.54-.47-4.23-1.42-.69-.95-1.03-2.13-1.03-3.55,0-3.63,1.64-9.19,4.91-16.69,3.27-7.49,17.83-34.56,18.51-35.75.69-1.18,1.41-2.17,2.17-2.96l-.46-.24-6.4,1.89c-.61.32-1.22.79-1.83,1.42-.61.63-1.3,1.74-2.06,3.31-6.4,0-12.57,1.86-18.51,5.56-5.94,3.71-11.24,8.13-15.89,13.26-4.65,5.13-8.34,10.46-11.09,15.98-2.22,4.48-3.53,8.32-3.95,11.55l8.96,1.89c-.13-.3-.21-.65-.21-1.12,0-2.37,1.1-6.07,3.31-11.13,2.21-5.05,5.14-10.14,8.8-15.27,3.66-5.13,7.85-9.59,12.57-13.38,4.72-3.79,9.67-5.68,14.86-5.68l.23.24c-1.83,3.31-3.89,7.1-6.17,11.36-2.29,4.26-4.65,8.29-7.09,12.07-2.14,3.31-4.46,6.39-6.97,9.23-2.51,2.84-4.99,5.33-7.43,7.46-2.44,2.13-4.61,3.83-6.51,5.09-1.22.81-2.21,1.33-3.02,1.62l3.12.66c1.91-1.32,3.82-2.82,5.73-4.53,2.74-2.45,5.41-5.17,8-8.17,2.59-3,4.87-5.84,6.86-8.52-2.59,4.26-4.54,8.25-5.83,11.96-1.3,3.71-1.94,6.67-1.94,8.88,0,1.15.15,2.21.44,3.17l15.96,3.36c1.1-.44,2.22-.95,3.37-1.56,4.19-2.21,8.42-5.13,12.69-8.76,4.26-3.63,8.49-7.69,12.69-12.19,4.19-4.5,8.04-8.95,11.54-13.38,0-.47-.15-.83-.46-1.07Z"/>
</svg>