<?xml version="1.0" encoding="UTF-8"?>
<svg id="Layer_1" xmlns="http://www.w3.org/2000/svg" version="1.1" viewBox="0 0 612 173">
  <!-- Generator: Adobe Illustrator 29.5.1, SVG Export Plug-In . SVG Version: 2.1.0 Build 141)  -->
  <defs>
    <style>
      .st0 {
        fill: none;
        stroke: #231f20;
        stroke-miterlimit: 10;
        stroke-width: 3px;
      }
    </style>
  </defs>
  <g>
    <path d="M52.19,127.24c5.49-48.26,40.09-116.14,44.34-117.23,2.39-.67,10.18,5.18,8.14,5.84-2.21.75-6.02,1.67-10,8.77-10,17.95-25.05,45.84-31.95,79.66,14.87-38.83,54.25-94.77,71.42-94.77,8.76,0,13.72,8.02,13.72,16.03,0,20.21-33.01,63.21-65.23,66.3,11.68,16.7,23.63,31.48,39.83,31.48,3.19,0,2.83-2.09,4.51-2.09.8,0,1.15.5,1.06.92-.35,1.5-2.48,3.09-9.03,3.17-21.15.17-31.77-17.45-44.16-33.82-1.15-.33-1.95-.75-2.48-1.25-3.98,8.02-7.52,15.78-10.44,22.79-1.86,4.59-3.19,13.11-2.83,16.62.27,2.42-7.26.75-6.9-2.42h0ZM73.43,88.25c1.33.5,2.66.67,5.04.67,18.67,0,64.87-33.4,64.87-67.97,0-7.18-4.96-8.52-7.17-8.52-17.43,0-44.43,39.66-62.75,75.81h.01Z"/>
    <path d="M145.62,119c0-10.02,18.15-41.4,15.05-37.43-3.1,3.97-22.65,27.07-27.44,27.07-1.7,0-3.98-2.71-3.98-4.38,0-5.29,3.1-10.44,3.84-12.18.15-.35.15-.63,0-.97l-.07-.14c-.15-.28-.22-.7-.07-1.04.89-2.02,2.21-3.97,3.1-4.24.96-.28,4.87,1.67,3.76,3.06-1.77,2.23-7.82,10.92-7.6,14.96.07,1.04.22,1.74,1.18,1.74,7.45,0,28.55-29.78,31.05-29.78.59-.14,3.91.9,3.1,2.57-.81,1.67-16.89,32.42-16.89,41.96,0,1.81.66,3.06,1.77,3.48.89.35,1.62,2.16-.22,2.16s-6.56-2.23-6.56-6.82l-.02-.02Z"/>
    <path d="M170.48,114.97c.37-5.29,3.98-16.35,8.19-26.58.15-.35.15-.63,0-.97l-.07-.14c-.15-.28-.22-.7-.07-1.04.96-1.95,3.02-5.71,3.91-5.98.96-.28,3.91,1.32,3.76,3.06-.15,1.74-7.97,15.31-10.33,28.25-.66,3.48,18.59-29.57,29.73-29.57,1.99,0,3.47,1.39,3.47,4.31,0,4.87-8.63,24.63-6.49,25.74,3.39,1.81,24.78-21.71,26.19-23.1s2.14-.14,1.33.9-20.28,24.49-26.85,24.49c-3.54,0-5.24-2.92-5.24-4.17,0-9.39,8.78-25.12,7.01-26.37-3.54-2.5-18.44,15.24-30.46,34.37-.74.56-4.2-.56-4.06-3.2h-.02Z"/>
    <path d="M219.08,114.97c.37-5.29,3.98-16.35,8.19-26.58.15-.35.15-.63,0-.97l-.07-.14c-.15-.28-.22-.7-.07-1.04.96-1.95,3.02-5.71,3.91-5.98.96-.28,3.91,1.32,3.76,3.06s-7.97,15.31-10.33,28.25c-.66,3.48,18.59-29.57,29.73-29.57,1.99,0,3.47,1.39,3.47,4.31,0,4.87-8.63,24.63-6.49,25.74,3.39,1.81,24.78-21.71,26.19-23.1,1.4-1.39,2.14-.14,1.33.9s-20.28,24.49-26.85,24.49c-3.54,0-5.24-2.92-5.24-4.17,0-9.39,8.78-25.12,7.01-26.37-3.54-2.5-18.44,15.24-30.46,34.37-.74.56-4.2-.56-4.06-3.2h-.02Z"/>
    <path d="M271.15,110.65c0-6.61,3.91-18.58,5.46-21.43.22-.42.22-.77.15-1.11-.07-.42-.52-.56-.22-1.11,1.62-3.06,2.07-3.83,2.58-3.97.29-.07.74-.07,1.18.14,2.14.77,4.94,3.55,4.43,4.38-5.31,7.86-12.83,24.42-10.03,25.68,3.98,1.74,21.83-16.14,29.87-26.23,1.77-2.23,2.21.14,1.4.97s-21.76,26.72-30.61,26.72c-2.14,0-4.2-.83-4.2-4.04h0ZM283.98,72.59c.29-.97,1.77-6.89,2.21-8.42s5.31,1.39,4.65,2.85-3.69,5.71-4.28,6.89c-.59,1.11-2.88-.35-2.58-1.32Z"/>
    <path d="M294.53,114.97c.37-5.29,3.98-16.35,8.19-26.58.15-.35.15-.63,0-.97l-.07-.14c-.15-.28-.22-.7-.07-1.04.96-1.95,3.02-5.71,3.91-5.98.96-.28,3.91,1.32,3.76,3.06s-7.97,15.31-10.33,28.25c-.66,3.48,18.59-29.57,29.73-29.57,1.99,0,3.47,1.39,3.47,4.31,0,4.87-8.63,24.63-6.49,25.74,3.39,1.81,24.78-21.71,26.18-23.1s2.14-.14,1.33.9-20.28,24.49-26.85,24.49c-3.54,0-5.24-2.92-5.24-4.17,0-9.39,8.78-25.12,7.01-26.37-3.54-2.5-18.44,15.24-30.46,34.37-.74.56-4.2-.56-4.06-3.2h-.01Z"/>
    <path d="M315.69,158.67c0-8,22.13-30.69,50.16-52.05,5.75-13.71,9.07-24.01,7.97-22.61-3.02,3.9-19.33,27.62-26.92,27.62-2.07,0-5.02-1.04-5.02-5.5,0-5.98,13.06-23.31,18.66-23.31,2.73,0,5.09,2.57,5.97,4.17.15.28.22,1.25-1.48.49-1.18-.56-2.88-.9-4.28.07-6.12,4.11-15.05,14.89-15.05,19.97,0,.49,0,1.53,1.03,1.53,7.82,0,28.54-28.74,29.28-31.45,1.33-4.73,4.28-.49,3.69,1.46-.81,2.71-3.47,11.62-7.52,22.82,7.75-5.64,15.79-11.06,23.83-16,.96-.56,2.58,1.46,1.62,2.02-7.75,4.38-17.19,10.65-26.78,17.74-9.96,26.65-26.77,63.18-45.29,63.18-7.38,0-9.88-5.84-9.88-10.16h.01ZM324.25,166.67c12.98,0,29.5-31.8,39.9-55.94-23.23,17.95-45.44,39.52-45.44,49.68,0,4.11,2.07,6.26,5.53,6.26h.01Z"/>
  </g>
  <line class="st0" x1="447.16" y1="116.83" x2="388.76" y2="116.83"/>
  <g>
    <path d="M515.93,95.39c0,4.58-.69,9.21-2.08,13.88s-3.34,9.04-5.84,13.13c-2.14,3.49-4.57,6.49-7.27,8.99-2.7,2.51-5.56,4.39-8.58,5.66-3.02,1.26-6.13,1.89-9.33,1.89-2.81,0-5.41-.55-7.81-1.64-2.4-1.1-4.46-2.67-6.16-4.71s-3.01-4.52-3.92-7.42c-.91-2.91-1.36-6.07-1.36-9.49,0-5.55.92-11,2.76-16.34,1.84-5.35,4.32-10.11,7.43-14.28s6.65-7.47,10.62-9.89,8.02-3.64,12.16-3.64c3.83,0,7.22,1,10.15,2.99s5.2,4.8,6.82,8.42,2.42,7.77,2.42,12.46h-.01ZM510.72,93.29c0-3.09-.35-5.87-1.04-8.35-.7-2.47-1.69-4.57-2.99-6.28-1.3-1.71-2.87-3.02-4.71-3.94-1.84-.91-3.97-1.37-6.39-1.37s-4.99.61-7.45,1.82c-2.46,1.21-4.77,2.99-6.93,5.33s-4.1,5.19-5.82,8.55c-1.93,3.72-3.52,8.18-4.76,13.38-1.24,5.2-1.86,10.01-1.86,14.43,0,4.15.61,7.76,1.83,10.81,1.22,3.06,2.98,5.42,5.28,7.08,2.29,1.66,4.94,2.49,7.93,2.49,2.81,0,5.59-.78,8.36-2.34,2.76-1.56,5.31-3.77,7.63-6.63,2.33-2.86,4.29-6.18,5.89-9.97,1.42-3.35,2.61-7.38,3.58-12.08s1.45-9.01,1.45-12.93h0Z"/>
    <path d="M571.38,95.39c0,4.58-.69,9.21-2.08,13.88s-3.34,9.04-5.84,13.13c-2.14,3.49-4.57,6.49-7.27,8.99-2.7,2.51-5.56,4.39-8.58,5.66-3.02,1.26-6.13,1.89-9.33,1.89-2.81,0-5.41-.55-7.81-1.64-2.4-1.1-4.46-2.67-6.16-4.71s-3.01-4.52-3.92-7.42c-.91-2.91-1.36-6.07-1.36-9.49,0-5.55.92-11,2.76-16.34,1.84-5.35,4.32-10.11,7.43-14.28s6.65-7.47,10.62-9.89,8.02-3.64,12.16-3.64c3.83,0,7.22,1,10.15,2.99,2.93,1.99,5.2,4.8,6.82,8.42s2.42,7.77,2.42,12.46h0ZM566.17,93.29c0-3.09-.35-5.87-1.04-8.35-.7-2.47-1.69-4.57-2.99-6.28-1.3-1.71-2.87-3.02-4.71-3.94-1.84-.91-3.97-1.37-6.39-1.37s-4.99.61-7.45,1.82-4.77,2.99-6.93,5.33-4.1,5.19-5.82,8.55c-1.93,3.72-3.52,8.18-4.76,13.38s-1.86,10.01-1.86,14.43c0,4.15.61,7.76,1.83,10.81,1.22,3.06,2.98,5.42,5.28,7.08,2.29,1.66,4.94,2.49,7.93,2.49,2.81,0,5.59-.78,8.36-2.34,2.76-1.56,5.31-3.77,7.63-6.63,2.33-2.86,4.29-6.18,5.89-9.97,1.42-3.35,2.61-7.38,3.58-12.08.97-4.7,1.45-9.01,1.45-12.93h0Z"/>
  </g>
  <g>
    <path d="M405.94,164.95h-1.96l3.13-12.8h-.09l-8.21,12.8h-1.93l-1.87-12.8h-.09l-3.13,12.8h-1.84l3.62-14.78h2.98l1.81,12.42.12-.02,7.92-12.4h3.16l-3.62,14.78h0Z"/>
    <path d="M445.37,151.42h-6.17l-1.29,5.24h5.87l-.29,1.21h-5.84l-1.4,5.8h6.63l-.32,1.27h-8.53l3.59-14.78h8.04l-.29,1.25h0Z"/>
    <path d="M483.3,155.83c0,1.24-.21,2.41-.63,3.52s-1.03,2.07-1.84,2.9c-.81.83-1.81,1.49-3,1.97-1.19.49-2.54.73-4.06.73h-4.44l3.59-14.78h4.24c1.07,0,1.99.14,2.76.42.77.28,1.4.66,1.9,1.16.5.49.87,1.09,1.11,1.78.24.7.37,1.46.37,2.3h0ZM481.28,155.89c0-1.39-.37-2.48-1.11-3.28-.74-.79-1.85-1.19-3.33-1.19h-2.28l-2.98,12.27h2.48c1.09,0,2.08-.21,2.97-.63s1.65-.98,2.28-1.69,1.12-1.54,1.46-2.48.51-1.95.51-3.01h0Z"/>
    <path d="M510.33,164.95h-1.99l3.59-14.78h1.99l-3.59,14.78Z"/>
    <path d="M547.24,164.95l-.23-3.72h-6.46l-2.34,3.72h-2.04l9.35-14.78h2.69l1.05,14.78h-2.02,0ZM546.56,151.46h-.12l-5.29,8.64h5.84l-.44-8.64h0Z"/>
  </g>
  <g>
    <path d="M407.76,98.45c0,.56-.1,1.05-.31,1.49s-.49.82-.84,1.14c-.35.32-.76.59-1.22.8-.46.22-.95.37-1.46.47v.04c.33.04.68.13,1.03.27s.67.33.96.57c.28.24.52.54.69.89.18.35.27.75.27,1.21,0,.82-.18,1.53-.55,2.13-.36.6-.85,1.1-1.46,1.49-.61.4-1.31.69-2.11.88s-1.62.28-2.46.28h-5.22l3.63-14.78h4.37c.63,0,1.23.06,1.8.18s1.07.31,1.49.56c.42.26.76.58,1.02.97.25.39.38.86.38,1.4h-.01ZM404.89,105.34c0-.42-.1-.78-.29-1.07s-.45-.55-.77-.74c-.32-.19-.67-.34-1.08-.43-.4-.09-.81-.14-1.22-.14h-2.83l-1.45,5.95h2.89c1.4,0,2.54-.31,3.42-.93s1.33-1.5,1.33-2.64h0ZM405.78,98.62c0-.71-.3-1.23-.9-1.57s-1.37-.5-2.32-.5h-2.27l-1.3,5.28h2.63c.53,0,1.05-.07,1.55-.21s.94-.34,1.33-.62c.38-.27.69-.61.93-1s.35-.86.35-1.39h0Z"/>
    <path d="M424.13,110.12l-.24-3.72h-6.52l-2.36,3.72h-2.06l9.44-14.78h2.71l1.06,14.78h-2.04,0ZM423.45,96.63h-.12l-5.34,8.64h5.9l-.44-8.64Z"/>
    <path d="M447.79,98.64c0,.63-.12,1.19-.37,1.7s-.58.95-1.02,1.33c-.43.38-.93.69-1.5.93-.57.24-1.19.41-1.86.49l2.83,7.03h-2.04l-2.68-6.87h-2.74l-1.68,6.87h-1.95l3.63-14.78h4.51c1.48,0,2.66.27,3.54.8.88.54,1.33,1.37,1.33,2.49h0ZM445.87,98.81c0-.78-.31-1.35-.93-1.71s-1.4-.54-2.35-.54h-2.54l-1.36,5.57h2.77c.65,0,1.24-.08,1.77-.23s.99-.38,1.39-.67c.39-.29.7-.64.91-1.05.22-.41.32-.87.32-1.37h.02Z"/>
  </g>
</svg>